<svg width="40" height="40" viewBox="0 0 40 40" fill="none" xmlns="http://www.w3.org/2000/svg">
<path d="M6.00066 12.0013C8.64644 12.0013 11.2916 11.9973 13.9373 12.0033C15.0086 12.006 16.06 12.137 17.0309 12.6393C18.299 13.2945 18.9898 14.3595 19.1146 15.7752C19.1589 16.2807 19.1311 16.8056 19.0466 17.3059C18.8795 18.301 18.299 19.0222 17.4278 19.5098C17.3512 19.553 17.2753 19.5969 17.1993 19.6415C17.1848 19.6501 17.1729 19.6641 17.1544 19.6794C17.4239 19.8244 17.6999 19.9535 17.9562 20.1145C19.0605 20.807 19.5571 21.8554 19.6602 23.1246C19.7705 24.4811 19.4178 25.6991 18.5592 26.7581C17.7818 27.7167 16.7601 28.2436 15.5601 28.4119C14.9181 28.5024 14.2676 28.5689 13.6203 28.5729C11.0802 28.5909 8.5401 28.5795 6 28.5789V12.0013H6.00066ZM9.33793 25.7091C9.44757 25.7091 9.54201 25.7091 9.63712 25.7091C10.7876 25.7091 11.9375 25.7131 13.088 25.7064C13.4559 25.7044 13.8251 25.6865 14.1916 25.6525C15.2213 25.5567 15.9035 24.9959 16.0897 24.0407C16.1611 23.6748 16.1571 23.283 16.1215 22.9098C16.0673 22.347 15.7615 21.9239 15.2655 21.6498C14.8071 21.397 14.3045 21.3086 13.794 21.3032C12.3628 21.2879 10.9316 21.2926 9.5004 21.2899C9.45021 21.2899 9.40001 21.2986 9.33925 21.3039V25.7084L9.33793 25.7091ZM9.33331 18.5266C9.39869 18.5319 9.44162 18.5379 9.48389 18.5379C10.8286 18.5379 12.1733 18.5512 13.5179 18.5259C13.9155 18.5186 14.3191 18.4294 14.7054 18.3237C15.1308 18.2066 15.4881 17.9664 15.6671 17.5267C15.8322 17.1216 15.8612 16.6978 15.7945 16.2741C15.6961 15.6468 15.3454 15.2257 14.7153 15.084C14.3996 15.0128 14.0773 14.9336 13.7564 14.927C12.3159 14.8971 10.8748 14.8917 9.4337 14.8791C9.402 14.8791 9.36963 14.8971 9.33265 14.9077V18.5259L9.33331 18.5266Z" fill="#737097"/>
<path d="M32.9961 23.3622H24.0482C24.0152 24.8736 24.8276 26.0331 26.2865 26.3185C27.157 26.4888 28.0129 26.4555 28.7586 25.9074C29.0201 25.7151 29.2018 25.4157 29.4303 25.1756C29.5003 25.1018 29.6046 25.0139 29.6938 25.0126C30.6957 25.0013 31.697 25.006 32.6989 25.0066C32.7325 25.0066 32.7656 25.0173 32.8158 25.0259C32.7821 25.4683 32.6077 25.8535 32.3891 26.2134C31.4328 27.7866 30.026 28.6608 28.2217 28.9122C26.5065 29.151 24.885 28.9162 23.3772 28.0075C22.0629 27.2152 21.2611 26.0723 20.9672 24.5649C20.6324 22.8473 20.6522 21.1443 21.3054 19.5018C22.0174 17.711 23.364 16.6254 25.2126 16.1963C26.8895 15.8071 28.5327 15.9389 30.0821 16.7385C31.3152 17.3744 32.0946 18.4215 32.5787 19.7034C33.0192 20.8702 33.0113 22.0936 32.9961 23.3635V23.3622ZM24.1083 21.2261H29.6192C29.6027 19.8218 28.6906 18.8093 27.2098 18.661C25.4979 18.49 24.3904 19.4014 24.1077 21.2261H24.1083Z" fill="#737097"/>
<path d="M30.3984 12.7957V14.8146H23.2708V12.7957H30.3984Z" fill="#737097"/>
</svg>
