<svg width="233" height="160" viewBox="0 0 233 160" fill="none" xmlns="http://www.w3.org/2000/svg">
<path d="M131 26L196.5 86.501" stroke="#594AFF" stroke-width="2" stroke-linecap="round"/>
<path d="M203.625 103.501C207.866 103.501 211.305 100.019 211.305 95.724C211.305 91.429 207.866 87.9473 203.625 87.9473C199.383 87.9473 195.944 91.429 195.944 95.724C195.944 100.019 199.383 103.501 203.625 103.501Z" fill="white"/>
<path d="M203.625 106.192C200.08 106.192 196.535 104.398 194.467 100.808C192.99 98.4156 192.694 95.7236 193.285 92.7326C194.172 90.0407 195.944 87.6478 198.307 86.4514C203.329 83.4604 209.828 85.255 212.782 90.3398C214.26 92.7326 214.555 95.7236 213.964 98.4156C213.078 101.108 211.305 103.5 208.647 104.697C207.17 105.893 205.397 106.192 203.625 106.192ZM203.625 90.938C202.738 90.938 202.148 91.2371 201.261 91.5362C199.194 92.7326 198.307 95.7236 199.489 97.8174C200.671 99.9111 203.625 100.808 205.693 99.612C206.874 99.0138 207.76 98.1165 208.056 96.9201C208.351 95.7236 208.351 94.5272 207.465 93.3308C206.874 92.1344 205.988 91.5362 204.806 90.938C204.216 90.938 203.92 90.938 203.625 90.938Z" fill="#594AFF"/>
<path d="M231.689 125.335L229.916 122.044C230.212 121.147 230.507 120.549 230.803 119.652C233.166 110.678 227.848 101.107 218.986 98.7142L205.102 95.125C203.625 94.5268 201.852 95.4241 201.557 97.2187L198.012 110.678C195.649 119.652 200.966 129.223 209.828 131.616C210.715 131.915 211.601 131.915 212.487 132.214L214.26 135.504C214.555 136.102 215.441 136.7 216.032 137C216.327 137 216.623 137 216.918 137C217.509 137 217.804 137 218.395 136.7L230.507 129.522C231.098 129.223 231.689 128.326 231.984 127.727C232.28 127.129 231.984 125.933 231.689 125.335ZM223.713 123.54L224.894 125.634L217.804 129.821L216.623 127.727C216.032 126.83 215.146 126.232 213.964 126.232C213.078 126.232 212.192 126.232 211.305 125.933C205.397 124.437 201.852 118.156 203.625 112.473L205.397 105.893L208.942 112.174C208.056 113.969 208.056 116.062 209.238 117.857C211.01 120.848 214.555 121.745 217.214 119.951C220.168 118.156 221.054 114.567 219.282 111.875C218.1 109.781 216.032 108.884 213.669 108.884L210.124 102.902L216.623 104.696C222.531 106.192 226.076 112.473 224.304 118.156C224.008 119.053 223.713 119.951 223.122 120.848C223.122 121.446 223.122 122.643 223.713 123.54Z" fill="white"/>
<path d="M41.4999 141.5L130.18 27.5356" stroke="white" stroke-width="8" stroke-linecap="round"/>
<path d="M43.4998 139.5L130.18 27.5358" stroke="#594AFF" stroke-width="2" stroke-linecap="round"/>
<g filter="url(#filter0_d_371_6708)">
<path d="M132.725 34.6185C136.822 33.5207 139.243 29.2675 138.131 25.1189C137.019 20.9703 132.797 18.4972 128.699 19.5951C124.602 20.693 122.181 24.9461 123.293 29.0947C124.405 33.2433 128.627 35.7164 132.725 34.6185Z" fill="#594AFF"/>
<path d="M133.422 37.2193C129.998 38.1368 126.109 37.3208 123.183 34.3891C121.137 32.4601 120.154 29.9363 119.951 26.8943C120.11 24.0647 121.203 21.2947 123.176 19.5273C127.253 15.3384 133.995 15.3898 138.164 19.5368C140.211 21.4658 141.27 24.2784 141.396 27.0316C141.237 29.8611 140.144 32.6312 137.886 34.475C136.768 36.0129 135.134 36.7606 133.422 37.2193ZM129.474 22.4848C128.618 22.7142 128.124 23.156 127.346 23.6743C125.658 25.3651 125.576 28.4836 127.259 30.2002C128.943 31.9167 132.028 32.0189 133.716 30.328C134.703 29.4444 135.326 28.3483 135.302 27.1162C135.278 25.8841 134.968 24.7284 133.802 23.8021C132.922 22.7994 131.911 22.4509 130.615 22.179C130.044 22.3319 129.759 22.4083 129.474 22.4848Z" fill="white"/>
</g>
<path d="M39.0506 154.62C43.148 153.522 45.5684 149.268 44.4568 145.12C43.3452 140.971 39.1225 138.498 35.0251 139.596C30.9277 140.694 28.5072 144.947 29.6188 149.096C30.7305 153.244 34.9532 155.717 39.0506 154.62Z" fill="white"/>
<path d="M39.7475 157.22C36.3234 158.138 32.4347 157.322 29.5083 154.39C27.4623 152.461 26.4802 149.937 26.2768 146.895C26.4361 144.066 27.5289 141.296 29.502 139.528C33.5787 135.339 40.3208 135.391 44.4903 139.538C46.5363 141.467 47.5958 144.279 47.7218 147.033C47.5625 149.862 46.4698 152.632 44.2113 154.476C43.0942 156.014 41.4596 156.762 39.7475 157.22ZM35.7994 142.486C34.9434 142.715 34.4501 143.157 33.6715 143.675C31.9837 145.366 31.9018 148.485 33.5851 150.201C35.2684 151.918 38.3541 152.02 40.0418 150.329C41.0284 149.445 41.6522 148.349 41.6279 147.117C41.6036 145.885 41.2939 144.729 40.1282 143.803C39.2479 142.8 38.237 142.452 36.9408 142.18C36.3701 142.333 36.0848 142.409 35.7994 142.486Z" fill="#594AFF"/>
<defs>
<filter id="filter0_d_371_6708" x="103.951" y="0.40625" width="53.4451" height="53.1709" filterUnits="userSpaceOnUse" color-interpolation-filters="sRGB">
<feFlood flood-opacity="0" result="BackgroundImageFix"/>
<feColorMatrix in="SourceAlpha" type="matrix" values="0 0 0 0 0 0 0 0 0 0 0 0 0 0 0 0 0 0 127 0" result="hardAlpha"/>
<feOffset/>
<feGaussianBlur stdDeviation="8"/>
<feComposite in2="hardAlpha" operator="out"/>
<feColorMatrix type="matrix" values="0 0 0 0 0.452855 0 0 0 0 0.440767 0 0 0 0 0.591874 0 0 0 0.2 0"/>
<feBlend mode="normal" in2="BackgroundImageFix" result="effect1_dropShadow_371_6708"/>
<feBlend mode="normal" in="SourceGraphic" in2="effect1_dropShadow_371_6708" result="shape"/>
</filter>
</defs>
</svg>
