<svg fill="none" height="153" viewBox="0 0 309 153" width="309" xmlns="http://www.w3.org/2000/svg" xmlns:xlink="http://www.w3.org/1999/xlink"><filter id="a" color-interpolation-filters="sRGB" filterUnits="userSpaceOnUse" height="53.1704" width="53.4451" x="194.277" y=".406738"><feFlood flood-opacity="0" result="BackgroundImageFix"/><feColorMatrix in="SourceAlpha" result="hardAlpha" type="matrix" values="0 0 0 0 0 0 0 0 0 0 0 0 0 0 0 0 0 0 127 0"/><feOffset/><feGaussianBlur stdDeviation="8"/><feComposite in2="hardAlpha" operator="out"/><feColorMatrix type="matrix" values="0 0 0 0 0.452855 0 0 0 0 0.440767 0 0 0 0 0.591874 0 0 0 0.2 0"/><feBlend in2="BackgroundImageFix" mode="normal" result="effect1_dropShadow_34_15249"/><feBlend in="SourceGraphic" in2="effect1_dropShadow_34_15249" mode="normal" result="shape"/></filter><path d="m279.625 119.5c4.241 0 7.68-3.482 7.68-7.777 0-4.294-3.439-7.776-7.68-7.776-4.242 0-7.681 3.482-7.681 7.776 0 4.295 3.439 7.777 7.681 7.777z" fill="#fff"/><path d="m279.625 122.192c-3.545 0-7.09-1.794-9.158-5.384-1.477-2.392-1.773-5.084-1.182-8.075.887-2.692 2.659-5.085 5.022-6.282 5.022-2.9906 11.521-1.196 14.475 3.889 1.478 2.393 1.773 5.384 1.182 8.076-.886 2.692-2.659 5.084-5.317 6.281-1.477 1.196-3.25 1.495-5.022 1.495zm0-15.254c-.887 0-1.477.299-2.364.598-2.067 1.197-2.954 4.188-1.772 6.281 1.182 2.094 4.136 2.991 6.204 1.795 1.181-.598 2.067-1.496 2.363-2.692.295-1.196.295-2.393-.591-3.589-.591-1.197-1.477-1.795-2.659-2.393-.59 0-.886 0-1.181 0z" fill="#594aff"/><path d="m307.689 141.335-1.773-3.29c.296-.897.591-1.496.887-2.393 2.363-8.973-2.955-18.544-11.817-20.937l-13.884-3.59c-1.477-.598-3.25.3-3.545 2.094l-3.545 13.46c-2.363 8.973 2.954 18.544 11.816 20.937.887.299 1.773.299 2.659.598l1.773 3.291c.295.598 1.181 1.196 1.772 1.495h.886c.591 0 .886 0 1.477-.299l12.112-7.179c.591-.299 1.182-1.196 1.477-1.794.296-.598 0-1.795-.295-2.393zm-7.976-1.795 1.181 2.094-7.09 4.188-1.181-2.094c-.591-.897-1.477-1.496-2.659-1.496-.886 0-1.772 0-2.659-.299-5.908-1.495-9.453-7.776-7.68-13.459l1.772-6.581 3.545 6.281c-.886 1.795-.886 3.889.296 5.683 1.772 2.991 5.317 3.889 7.976 2.094 2.954-1.794 3.84-5.384 2.068-8.076-1.182-2.093-3.25-2.991-5.613-2.991l-3.545-5.982 6.499 1.795c5.908 1.495 9.453 7.777 7.681 13.46-.296.897-.591 1.794-1.182 2.691 0 .599 0 1.795.591 2.692z" fill="#22212f"/><path d="m18.7774 100.923 202.4026-73.386" stroke="#000" stroke-linecap="round" stroke-width="8"/><path d="m18.7774 100.923 202.4026-73.386" stroke="#594aff" stroke-linecap="round" stroke-width="2"/><g filter="url(#a)"><path d="m223.051 34.6195c4.097-1.0979 6.518-5.351 5.406-9.4996-1.111-4.1486-5.334-6.6217-9.432-5.5238-4.097 1.0979-6.517 5.351-5.406 9.4996 1.112 4.1486 5.335 6.6217 9.432 5.5238z" fill="#fff"/><path d="m223.748 37.2198c-3.424.9175-7.313.1015-10.239-2.8302-2.046-1.929-3.028-4.4528-3.232-7.4948.159-2.8296 1.252-5.5997 3.225-7.367 4.077-4.1889 10.819-4.1375 14.989.0094 2.046 1.9291 3.105 4.7417 3.231 7.4949-.159 2.8295-1.252 5.5996-3.51 7.4434-1.117 1.5379-2.752 2.2856-4.464 2.7443zm-3.948-14.7345c-.856.2293-1.35.6712-2.128 1.1895-1.688 1.6908-1.77 4.8093-.087 6.5259 1.684 1.7165 4.769 1.8187 6.457.1278.987-.8836 1.611-1.9797 1.586-3.2118-.024-1.2322-.334-2.3878-1.499-3.3141-.881-1.0027-1.892-1.3512-3.188-1.6232-.571.153-.856.2294-1.141.3059z" fill="#594aff"/></g><path d="m20.9684 108.619c4.0974-1.098 6.5179-5.351 5.4063-9.5001-1.1117-4.1486-5.3344-6.6217-9.4318-5.5238s-6.5178 5.351-5.4062 9.4999c1.1116 4.148 5.3343 6.621 9.4317 5.524z" fill="#fff"/><path d="m21.6654 111.219c-3.4242.917-7.3128.101-10.2392-2.83-2.04604-1.929-3.02811-4.453-3.23156-7.495.15931-2.8298 1.25207-5.5998 3.22516-7.3671 4.0768-4.189 10.8188-4.1376 14.9883.0094 2.0461 1.929 3.1056 4.7416 3.2316 7.4947-.1593 2.83-1.2521 5.6-3.5105 7.443-1.1171 1.538-2.7518 2.286-4.4638 2.745zm-3.9481-14.7347c-.8561.2294-1.3494.6712-2.128 1.1895-1.6877 1.6908-1.7696 4.8092-.0864 6.5262 1.6833 1.716 4.769 1.818 6.4568.128.9865-.884 1.6103-1.98 1.586-3.212-.0243-1.2324-.334-2.3881-1.4996-3.3144-.8804-1.0027-1.8913-1.3511-3.1875-1.6231-.5707.1529-.856.2293-1.1413.3058z" fill="#594aff"/></svg>