<svg width="40" height="40" viewBox="0 0 40 40" fill="none" xmlns="http://www.w3.org/2000/svg">
<path d="M4 19.4638C4.08297 18.8455 4.13642 18.2209 4.25449 17.609C5.3211 12.1012 8.32788 7.99032 13.416 5.64091C19.1743 2.98275 24.7802 3.57549 29.9417 7.26356C33.4782 9.79088 35.5915 13.3082 36.355 17.5954C36.9948 21.1893 36.4706 24.6365 34.8209 27.8882C33.3897 30.7099 31.3019 32.9508 28.5584 34.5368C27.637 35.0697 26.6334 35.4638 25.6545 35.8922C25.4455 35.9839 25.1767 35.9887 24.9437 35.9608C24.631 35.9241 24.4387 35.7031 24.3893 35.3872C24.363 35.2204 24.3582 35.0489 24.359 34.8798C24.363 33.5212 24.3757 32.1626 24.3749 30.804C24.3749 29.9017 24.2441 29.025 23.7471 28.244C23.6242 28.0509 23.4726 27.877 23.3195 27.6736C23.921 27.5667 24.5081 27.4877 25.0825 27.3545C26.7012 26.9795 28.1444 26.2927 29.195 24.942C29.9577 23.9616 30.3558 22.8288 30.5496 21.6217C30.71 20.6245 30.7642 19.6185 30.6334 18.6102C30.4802 17.4327 30.0255 16.3836 29.262 15.4797C29.0769 15.2604 29.0682 15.088 29.144 14.8312C29.5245 13.5284 29.3761 12.2488 28.9006 10.9987C28.8663 10.9093 28.6581 10.8208 28.5464 10.8375C28.0359 10.9165 27.4982 10.9548 27.0323 11.1535C26.2265 11.4965 25.4623 11.9377 24.6916 12.3581C24.485 12.4706 24.3151 12.5288 24.0718 12.4674C21.5548 11.8316 19.0331 11.8387 16.5161 12.4706C16.2968 12.5256 16.1356 12.4905 15.9553 12.3724C15.0387 11.7733 14.0901 11.2308 13.0155 10.966C12.6789 10.883 12.3263 10.8647 11.9792 10.8312C11.8149 10.8152 11.7224 10.9022 11.6641 11.0721C11.2214 12.3701 11.0913 13.6744 11.5134 15.0059C11.5437 15.1024 11.5141 15.2628 11.4495 15.3377C10.0662 16.9389 9.75428 18.8224 9.96648 20.8519C10.071 21.8491 10.2736 22.8184 10.6948 23.735C11.4001 25.2699 12.5752 26.295 14.1244 26.9229C15.0363 27.2915 15.988 27.4877 16.9573 27.6169C17.061 27.6305 17.1631 27.6544 17.2238 27.6656C16.9908 28.0932 16.7539 28.5112 16.5369 28.9388C16.4619 29.0872 16.4044 29.2595 16.3973 29.4239C16.3805 29.8156 16.1388 29.9496 15.8101 30.0509C14.6589 30.4059 13.5333 30.4498 12.5504 29.6488C12.1412 29.3154 11.8197 28.8591 11.5078 28.4227C11.0387 27.7677 10.497 27.2125 9.7128 26.9699C9.40805 26.8758 9.07059 26.8559 8.7483 26.8591C8.60789 26.8607 8.40606 26.9763 8.35021 27.0952C8.31112 27.1782 8.45153 27.3728 8.54965 27.4861C8.65895 27.6122 8.80095 27.7167 8.94375 27.806C9.70242 28.2807 10.1915 28.9779 10.5528 29.7717C10.8257 30.3708 11.0738 30.9803 11.558 31.4518C12.4627 32.3309 13.5764 32.6221 14.797 32.579C15.2613 32.5623 15.724 32.4865 16.213 32.4346C16.221 32.4977 16.2377 32.5758 16.2393 32.6548C16.2497 33.4295 16.2609 34.2049 16.2656 34.9795C16.2704 35.8395 15.7614 36.1897 14.9533 35.9001C11.3482 34.607 8.51695 32.3397 6.47945 29.104C5.1783 27.0386 4.3933 24.7785 4.12445 22.3461C4.08377 21.9791 4.04148 21.613 4 21.2468C4 20.6525 4 20.0581 4 19.463V19.4638Z" fill="#737097"/>
</svg>
