<svg width="282" height="115" viewBox="0 0 282 115" fill="none" xmlns="http://www.w3.org/2000/svg">
<path opacity="0.7" d="M28.7776 99.3353C28.882 99.5689 28.9458 99.8136 28.969 100.075C29.0561 101.071 28.3946 101.91 27.9478 102.739C27.4256 103.701 26.799 104.614 26.0969 105.465C25.215 106.538 24.1532 107.562 22.7954 107.984C20.2076 108.785 17.8113 106.271 16.0126 104.775C13.9992 103.101 12.0845 101.315 10.309 99.4131C5.29002 94.0347 1.124 87.4548 0.404518 80.1296C-0.970618 66.13 0.862894 51.1682 10.5469 39.0096C20.225 26.851 35.7519 10.4486 84.1543 3.72965C132.557 -2.98927 165.444 -0.747779 221.36 11.4108C277.277 23.5694 282.203 44.0488 281.994 55.4898C281.762 68.2936 267.181 89.4126 236.591 101.888C211.015 112.323 174.501 117.962 135.986 113.407C97.4299 108.846 77.4005 105.726 54.6556 97.4053C34.7017 90.1079 23.132 84.5236 21.1244 77.165C19.1226 69.8065 22.8767 61.3244 25.5051 61.0852C28.2728 60.8349 25.6327 64.3668 36.6454 72.365C47.6581 80.3632 64.6645 88.7674 109.4 97.4053C154.135 106.043 186.512 107.328 222.237 96.7656C257.955 86.2033 269.641 72.7655 271.312 67.0032C272.983 61.241 264.535 42.1132 240.403 34.343C213.852 25.7998 196.614 22.0176 169.662 18.6804C145.751 15.7214 124.219 12.3619 92.8809 17.4011C54.0116 23.6528 27.4488 33.7201 19.4359 41.7238C11.423 49.722 2.07557 62.5258 10.425 78.2051C11.2547 79.7681 12.1599 81.2921 13.1173 82.7883C15.0436 85.8196 17.1498 88.7619 19.6506 91.3816C21.3913 93.2115 23.4801 95.2917 25.8184 96.4097C26.6771 96.8212 27.3038 97.3886 27.9246 98.0783C28.2612 98.4565 28.5803 98.8681 28.7776 99.3242V99.3353Z" fill="#FFDA44"/>
</svg>
