<svg width="172" height="121" viewBox="0 0 172 121" fill="none" xmlns="http://www.w3.org/2000/svg">
<path d="M1.9479 104.163C-0.481719 105.567 -0.676734 109.002 1.57843 110.672L14.416 120.177C15.6627 121.1 17.3379 121.195 18.681 120.419L82.3656 83.6304L71.1471 64.1885L1.9479 104.163Z" fill="#594AFF"/>
<path opacity="0.5" fill-rule="evenodd" clip-rule="evenodd" d="M26.6411 85.3901C25.6227 71.9765 32.169 58.5285 44.5909 51.3527L101.194 18.6545L137.289 81.2065L80.6852 113.905C67.9327 121.272 52.5548 119.967 41.3713 111.82L33.6213 116.297C31.758 117.373 29.3755 116.734 28.2998 114.87L17.0748 95.417C15.9991 93.5528 16.6375 91.1689 18.5007 90.0926L26.6411 85.3901Z" fill="white"/>
<path d="M150.776 80.1778C171.072 68.4532 178.026 42.4857 166.308 22.1779C154.59 1.87017 128.637 -5.08779 108.34 6.6369L65.6626 31.2907C61.0045 33.9815 59.4086 39.9411 62.0979 44.6018L94.7941 101.265C97.4835 105.926 103.44 107.522 108.098 104.832L150.776 80.1778Z" fill="#594AFF"/>
<path d="M65.4486 64.0993C61.7222 66.252 60.4454 71.0196 62.5969 74.7482L69.4385 86.6049C71.59 90.3334 76.355 91.6109 80.0815 89.4582L141.776 53.8188C145.503 51.6662 146.78 46.8985 144.628 43.1699L137.786 31.3132C135.635 27.5847 130.87 26.3072 127.143 28.4599L65.4486 64.0993Z" fill="#3C2DE3"/>
</svg>
