<svg width="172" height="121" viewBox="0 0 172 121" fill="none" xmlns="http://www.w3.org/2000/svg">
<path d="M1.94789 104.163C-0.481718 105.567 -0.676733 109.002 1.57842 110.672L14.4159 120.177C15.6626 121.1 17.3378 121.195 18.681 120.419L82.3654 83.6304L71.1469 64.1886L1.94789 104.163Z" fill="#EB6963"/>
<path opacity="0.5" fill-rule="evenodd" clip-rule="evenodd" d="M26.641 85.3901C25.6227 71.9764 32.1689 58.5284 44.5908 51.3526L101.194 18.6544L137.288 81.2065L80.6851 113.905C67.9326 121.271 52.5547 119.967 41.3712 111.82L33.6212 116.297C31.758 117.373 29.3755 116.734 28.2998 114.87L17.0748 95.417C15.9991 93.5527 16.6375 91.1689 18.5007 90.0925L26.641 85.3901Z" fill="white"/>
<path d="M150.775 80.1778C171.072 68.4531 178.026 42.4857 166.308 22.1779C154.59 1.87017 128.637 -5.08779 108.34 6.6369L65.6626 31.2907C61.0045 33.9815 59.4086 39.9411 62.0979 44.6018L94.7941 101.265C97.4834 105.926 103.44 107.522 108.098 104.832L150.775 80.1778Z" fill="#EB6963"/>
<path d="M65.4482 64.0993C61.7217 66.252 60.4449 71.0196 62.5964 74.7482L69.438 86.6049C71.5895 90.3334 76.3545 91.6109 80.081 89.4582L141.776 53.8188C145.502 51.6662 146.779 46.8985 144.627 43.1699L137.786 31.3132C135.634 27.5847 130.869 26.3072 127.143 28.4599L65.4482 64.0993Z" fill="#F04941"/>
</svg>
