<svg width="40" height="40" viewBox="0 0 40 40" fill="none" xmlns="http://www.w3.org/2000/svg">
<path d="M32.1334 15.0402V24.827C32.1191 24.9355 32.1039 25.0441 32.0905 25.1531C32.0258 25.6867 32.0001 26.2279 31.8911 26.752C31.4084 29.0754 30.096 30.7258 27.8626 31.5955C26.793 32.012 25.6653 32.1257 24.5305 32.1372C21.9576 32.1633 19.3848 32.1876 16.8119 32.1738C15.5481 32.1672 14.2776 32.1619 13.0347 31.8601C11.0217 31.3717 9.5265 30.2298 8.63731 28.3448C8.09037 27.1847 7.92329 25.9371 7.90996 24.6709C7.88235 22.0428 7.85284 19.4143 7.87379 16.7862C7.88283 15.6814 7.94947 14.568 8.11084 13.476C8.36217 11.7742 9.18235 10.3619 10.5742 9.31753C11.7671 8.42262 13.1485 8.06656 14.6094 7.96327C15.1925 7.92186 15.7766 7.89806 16.3606 7.86664H23.6294C24.1968 7.89806 24.7642 7.92804 25.3316 7.96137C26.3246 8.01991 27.2971 8.19128 28.2082 8.60113C30.444 9.60695 31.6221 11.3982 31.9887 13.774C32.0534 14.1938 32.0858 14.6184 32.1334 15.0406V15.0402ZM20.0136 30.0413C20.0136 30.0289 20.014 30.016 20.0145 30.0037C20.6557 30.0037 21.2979 30.0227 21.9386 29.9999C23.3219 29.9499 24.7152 29.9675 26.0842 29.7942C27.9549 29.5581 29.2192 28.478 29.6757 26.6164C29.8604 25.8638 29.9209 25.0674 29.9361 24.2891C29.9804 22.0414 29.9951 19.7922 29.9775 17.5445C29.9685 16.3673 29.9304 15.183 29.7928 14.0153C29.5615 12.0532 28.3314 10.7303 26.3888 10.341C25.5572 10.1744 24.6928 10.1258 23.8417 10.1129C21.5778 10.0796 19.3129 10.0744 17.049 10.1006C15.9751 10.1129 14.8921 10.1515 13.832 10.3053C11.9737 10.5747 10.7089 11.7823 10.3353 13.6112C10.1734 14.4037 10.1172 15.2268 10.1001 16.0379C10.0582 18.0005 10.0435 19.965 10.0644 21.9281C10.0792 23.2881 10.1139 24.6523 10.2462 26.0047C10.3824 27.397 11.044 28.5295 12.2907 29.2501C13.0533 29.6909 13.8987 29.8751 14.7674 29.9061C16.5153 29.968 18.2647 29.9984 20.0136 30.0413Z" fill="#737097"/>
<path d="M13.7663 20.0326C13.7611 16.5887 16.5734 13.7797 20.0202 13.7854C23.4699 13.7911 26.2446 16.5615 26.2617 20.0179C26.2789 23.4594 23.4747 26.2746 20.0231 26.2803C16.5782 26.2865 13.7711 23.4832 13.7659 20.0326H13.7663ZM15.9679 20.0102C15.9551 22.2508 17.7492 24.0659 19.9898 24.0792C22.2342 24.0925 24.0483 22.3051 24.0649 20.064C24.0816 17.8111 22.2832 15.9913 20.0316 15.9827C17.7896 15.9746 15.9812 17.7673 15.9684 20.0102H15.9679Z" fill="#737097"/>
<path d="M27.9648 13.5255C27.97 14.3309 27.3331 14.984 26.5334 14.9926C25.7223 15.0016 25.0583 14.3518 25.0545 13.5455C25.0507 12.7405 25.6866 12.0922 26.4892 12.0817C27.3084 12.0713 27.9591 12.7077 27.9648 13.525V13.5255Z" fill="#737097"/>
</svg>
