<svg width="16" height="24" viewBox="0 0 16 24" fill="none" xmlns="http://www.w3.org/2000/svg">
<circle cx="4.86767" cy="6.85405" r="2.56382" transform="rotate(-30 4.86767 6.85405)" fill="white" stroke="#594AFF" stroke-width="2"/>
<path d="M9.85765 8.85907L5.30969 7.64161L4.09143 12.1882C3.41865 14.6991 4.9089 17.2802 7.42056 17.9544C7.81506 18.0601 8.2121 18.1128 8.60396 18.115L9.51184 19.6875L13.642 17.3029L12.7341 15.7304C12.9268 15.3908 13.0797 15.0206 13.1868 14.6253C13.8596 12.1144 12.3693 9.53323 9.85765 8.85907Z" fill="white" stroke="#22212F" stroke-width="2" stroke-miterlimit="10"/>
<path d="M9.65686 14.9849C10.6134 14.4327 10.9412 13.2095 10.3889 12.2529C9.83662 11.2963 8.61344 10.9686 7.65686 11.5208C6.70027 12.0731 6.37252 13.2963 6.9248 14.2529C7.47709 15.2095 8.70027 15.5372 9.65686 14.9849Z" fill="#22212F"/>
<path d="M5.62622 8.2218L8.3124 12.8744" stroke="#22212F" stroke-width="2" stroke-miterlimit="10"/>
</svg>
