<svg width="236" height="204" viewBox="0 0 236 204" fill="none" xmlns="http://www.w3.org/2000/svg">
<g filter="url(#filter0_d_203_32281)">
<path d="M17.9479 103.222C15.5183 104.625 15.3233 108.061 17.5784 109.73L30.416 119.235C31.6627 120.158 33.3379 120.254 34.681 119.478L98.3656 82.689L87.1471 63.2471L17.9479 103.222Z" fill="#FFDA44"/>
<path opacity="0.5" fill-rule="evenodd" clip-rule="evenodd" d="M42.6411 84.4487C41.6227 71.0351 48.169 57.5871 60.5909 50.4113L117.194 17.7131L153.289 80.2651L96.6852 112.963C83.9327 120.33 68.5548 119.026 57.3713 110.878L49.6213 115.355C47.758 116.432 45.3755 115.793 44.2998 113.929L33.0748 94.4756C31.9991 92.6114 32.6375 90.2275 34.5007 89.1512L42.6411 84.4487Z" fill="white"/>
<path d="M166.776 79.2364C187.072 67.5117 194.026 41.5443 182.308 21.2365C170.59 0.928766 144.637 -6.02919 124.34 5.6955L81.6626 30.3493C77.0045 33.0401 75.4086 38.9997 78.0979 43.6604L110.794 100.324C113.483 104.984 119.44 106.581 124.098 103.89L166.776 79.2364Z" fill="#FFDA44"/>
<path d="M81.4486 63.1579C77.7222 65.3106 76.4454 70.0782 78.5969 73.8068L85.4385 85.6635C87.59 89.392 92.355 90.6695 96.0815 88.5168L157.776 52.8774C161.503 50.7247 162.78 45.9571 160.628 42.2285L153.786 30.3718C151.635 26.6433 146.87 25.3658 143.143 27.5185L81.4486 63.1579Z" fill="#F2C614"/>
</g>
<defs>
<filter id="filter0_d_203_32281" x="0" y="0" width="236" height="204" filterUnits="userSpaceOnUse" color-interpolation-filters="sRGB">
<feFlood flood-opacity="0" result="BackgroundImageFix"/>
<feColorMatrix in="SourceAlpha" type="matrix" values="0 0 0 0 0 0 0 0 0 0 0 0 0 0 0 0 0 0 127 0" result="hardAlpha"/>
<feOffset dx="16" dy="52"/>
<feGaussianBlur stdDeviation="16"/>
<feComposite in2="hardAlpha" operator="out"/>
<feColorMatrix type="matrix" values="0 0 0 0 0.452855 0 0 0 0 0.440767 0 0 0 0 0.591874 0 0 0 0.16 0"/>
<feBlend mode="normal" in2="BackgroundImageFix" result="effect1_dropShadow_203_32281"/>
<feBlend mode="normal" in="SourceGraphic" in2="effect1_dropShadow_203_32281" result="shape"/>
</filter>
</defs>
</svg>
