<svg width="172" height="120" viewBox="0 0 172 120" fill="none" xmlns="http://www.w3.org/2000/svg">
<path d="M1.9479 103.222C-0.481719 104.625 -0.676734 108.061 1.57843 109.73L14.416 119.235C15.6627 120.158 17.3379 120.254 18.681 119.478L82.3656 82.689L71.1471 63.2471L1.9479 103.222Z" fill="#FFDA44"/>
<path opacity="0.5" fill-rule="evenodd" clip-rule="evenodd" d="M26.6411 84.4487C25.6227 71.0351 32.169 57.5871 44.5909 50.4113L101.194 17.7131L137.289 80.2651L80.6852 112.963C67.9327 120.33 52.5548 119.026 41.3713 110.878L33.6213 115.355C31.758 116.432 29.3755 115.793 28.2998 113.929L17.0748 94.4756C15.9991 92.6114 16.6375 90.2275 18.5007 89.1512L26.6411 84.4487Z" fill="white"/>
<path d="M150.776 79.2364C171.072 67.5117 178.026 41.5443 166.308 21.2365C154.59 0.928766 128.637 -6.02919 108.34 5.6955L65.6626 30.3493C61.0045 33.0401 59.4086 38.9997 62.0979 43.6604L94.7941 100.324C97.4835 104.984 103.44 106.581 108.098 103.89L150.776 79.2364Z" fill="#FFDA44"/>
<path d="M65.4486 63.1579C61.7222 65.3106 60.4454 70.0782 62.5969 73.8068L69.4385 85.6635C71.59 89.392 76.355 90.6695 80.0815 88.5168L141.776 52.8774C145.503 50.7247 146.78 45.9571 144.628 42.2285L137.786 30.3718C135.635 26.6433 130.87 25.3658 127.143 27.5185L65.4486 63.1579Z" fill="#F2C614"/>
</svg>
