<svg width="40" height="40" viewBox="0 0 40 40" fill="none" xmlns="http://www.w3.org/2000/svg">
<path d="M5.77906 27.5063L8.64534 28.3919C8.88496 27.6165 8.80014 26.777 8.41024 26.0651L5.77906 27.5063ZM3 36.5L0.133717 35.6144C-0.186041 36.6492 0.0768192 37.776 0.82145 38.5625C1.56608 39.3491 2.67685 39.6731 3.72761 39.4105L3 36.5ZM12.4459 34.1385L13.8733 31.4999C13.2141 31.1433 12.4453 31.0464 11.7183 31.2281L12.4459 34.1385ZM33.8764 19.5618C33.8764 27.0518 27.8046 33.1236 20.3146 33.1236V39.1236C31.1183 39.1236 39.8764 30.3655 39.8764 19.5618H33.8764ZM20.3146 6C27.8046 6 33.8764 12.0718 33.8764 19.5618H39.8764C39.8764 8.75813 31.1183 0 20.3146 0V6ZM6.75281 19.5618C6.75281 12.0718 12.8246 6 20.3146 6V0C9.51092 0 0.752805 8.75812 0.752805 19.5618H6.75281ZM8.41024 26.0651C7.35434 24.1373 6.75281 21.9243 6.75281 19.5618H0.752805C0.752805 22.9568 1.62022 26.1583 3.14788 28.9474L8.41024 26.0651ZM5.86628 37.3857L8.64534 28.3919L2.91278 26.6206L0.133717 35.6144L5.86628 37.3857ZM11.7183 31.2281L2.27239 33.5896L3.72761 39.4105L13.1735 37.049L11.7183 31.2281ZM20.3146 33.1236C17.9773 33.1236 15.7864 32.5348 13.8733 31.4999L11.0185 36.7772C13.7866 38.2746 16.9559 39.1236 20.3146 39.1236V33.1236Z" fill="white"/>
</svg>
