<svg width="41" height="41" viewBox="0 0 41 41" fill="none" xmlns="http://www.w3.org/2000/svg">
<path d="M14.9832 3.98346C16.8058 -0.942072 23.7724 -0.942079 25.595 3.98345L27.6632 9.57266C28.2362 11.1212 29.4571 12.3422 31.0057 12.9152L36.5949 14.9834C41.5204 16.806 41.5204 23.7726 36.5949 25.5952L31.0057 27.6634C29.4571 28.2364 28.2362 29.4574 27.6632 31.0059L25.595 36.5952C23.7724 41.5207 16.8058 41.5207 14.9832 36.5952L12.915 31.006C12.3419 29.4574 11.121 28.2364 9.57242 27.6634L3.98321 25.5952C-0.942316 23.7726 -0.942324 16.806 3.98321 14.9834L9.57242 12.9152C11.121 12.3422 12.3419 11.1212 12.915 9.57267L14.9832 3.98346Z" fill="#FFDA44"/>
</svg>
