<svg width="40" height="40" viewBox="0 0 40 40" fill="none" xmlns="http://www.w3.org/2000/svg">
<path d="M10.2561 13.4982C8.45358 13.5033 6.99119 12.0419 6.99832 10.2424C7.00545 8.47555 8.46885 7.00909 10.2347 6.99992C12.0128 6.99075 13.4996 8.48268 13.4935 10.2709C13.4874 12.047 12.0362 13.4931 10.2571 13.4982H10.2561Z" fill="#737097"/>
<path d="M19.9979 13.4983C18.2188 13.4962 16.7646 12.0522 16.7554 10.2782C16.7462 8.48888 18.228 6.99492 20.0081 7.00001C21.7923 7.0051 23.2649 8.49703 23.2506 10.2873C23.2364 12.0613 21.7791 13.5003 19.9979 13.4983Z" fill="#737097"/>
<path d="M29.7448 13.4982C27.9667 13.4921 26.5175 12.043 26.5134 10.2659C26.5083 8.47967 27.9993 6.98673 29.7763 6.99997C31.5636 7.0132 33.027 8.50716 33.0076 10.2985C32.9883 12.0715 31.5269 13.5043 29.7448 13.4982Z" fill="#737097"/>
<path d="M20.0112 23.2747C18.2086 23.2777 16.7473 21.8154 16.7554 20.0159C16.7636 18.249 18.23 16.7815 19.9938 16.7754C21.774 16.7693 23.2577 18.2612 23.2496 20.0495C23.2414 21.8245 21.7892 23.2706 20.0101 23.2737L20.0112 23.2747Z" fill="#737097"/>
<path d="M19.9959 33.0511C18.2168 33.048 16.7636 31.6029 16.7544 29.8289C16.7463 28.0407 18.2301 26.5467 20.0092 26.5528C21.7944 26.5589 23.2649 28.0519 23.2496 29.8422C23.2354 31.6162 21.7771 33.0541 19.9959 33.0511Z" fill="#737097"/>
</svg>
