<svg width="24" height="24" viewBox="0 0 24 24" fill="none" xmlns="http://www.w3.org/2000/svg">
<path fill-rule="evenodd" clip-rule="evenodd" d="M16.2942 6.29289C16.6847 5.90237 17.3179 5.90237 17.7084 6.29289C18.0989 6.68342 18.0989 7.31658 17.7084 7.70711L13.4149 12.0006L17.7094 16.2952C18.0999 16.6857 18.0999 17.3189 17.7094 17.7094C17.3189 18.0999 16.6857 18.0999 16.2952 17.7094L12.0007 13.4149L7.70711 17.7084C7.31658 18.0989 6.68342 18.0989 6.29289 17.7084C5.90237 17.3179 5.90237 16.6847 6.29289 16.2942L10.5864 12.0006L6.29387 7.70808C5.90335 7.31756 5.90335 6.68439 6.29387 6.29387C6.68439 5.90335 7.31756 5.90335 7.70808 6.29387L12.0007 10.5864L16.2942 6.29289Z" fill="#22212F"/>
</svg>
