<svg width="40" height="40" viewBox="0 0 40 40" fill="none" xmlns="http://www.w3.org/2000/svg">
<path d="M19.9444 10C22.8724 10.1142 25.8013 10.2185 28.7284 10.351C29.4182 10.3822 30.1103 10.4732 30.7903 10.598C32.4369 10.8999 33.4906 12.0068 33.8022 13.7318C34.2335 16.1181 34.3197 18.5312 34.2402 20.9452C34.1844 22.6327 34.021 24.318 33.8589 25.9997C33.7393 27.2426 33.2392 28.3008 32.1404 29.005C31.4761 29.4309 30.7264 29.5522 29.9665 29.6325C27.018 29.9429 24.0564 30.0129 21.0963 29.9982C18.1267 29.983 15.1567 29.8943 12.1885 29.7979C11.2219 29.7667 10.2539 29.645 9.29624 29.5027C7.67819 29.2628 6.52895 28.159 6.24812 26.4903C6.0338 25.2161 5.91549 23.9224 5.82396 22.6327C5.67617 20.5478 5.7177 18.4585 5.88736 16.3763C5.96683 15.4028 6.07667 14.4244 6.27714 13.4705C6.637 11.7615 7.83312 10.7336 9.56056 10.5178C12.3372 10.1708 15.13 10.14 17.9214 10.0932C18.5946 10.0821 19.2679 10.0914 19.9412 10.0914C19.9421 10.0611 19.943 10.0308 19.9439 10.0009L19.9444 10ZM17.1784 24.3064C19.6546 22.8815 22.1004 21.4745 24.5869 20.0439C22.0973 18.6115 19.6506 17.204 17.1784 15.7819V24.3064Z" fill="#737097"/>
</svg>
